<svg width="32" height="33" viewBox="0 0 32 33" fill="none" xmlns="http://www.w3.org/2000/svg">
<rect width="32" height="32" transform="translate(0 0.698364)" fill="#008BB3"/>
<mask id="mask0_148_169" style="mask-type:alpha" maskUnits="userSpaceOnUse" x="8" y="8" width="16" height="17">
<rect x="8" y="8.69836" width="16" height="16" fill="#D9D9D9"/>
</mask>
<g mask="url(#mask0_148_169)">
<path d="M9.3335 22.2649V20.9649C9.65572 20.9649 9.93061 20.9149 10.1582 20.8149C10.3862 20.7149 10.6168 20.6067 10.8502 20.4903C11.0835 20.3734 11.3419 20.2676 11.6255 20.1729C11.9086 20.0787 12.2557 20.0316 12.6668 20.0316C13.0891 20.0316 13.4362 20.0787 13.7082 20.1729C13.9806 20.2676 14.2335 20.3734 14.4668 20.4903C14.7002 20.6067 14.9335 20.7149 15.1668 20.8149C15.4002 20.9149 15.6779 20.9649 16.0002 20.9649C16.3224 20.9649 16.6002 20.9149 16.8335 20.8149C17.0668 20.7149 17.3002 20.6067 17.5335 20.4903C17.7668 20.3734 18.0224 20.2676 18.3002 20.1729C18.5779 20.0787 18.9224 20.0316 19.3335 20.0316C19.7557 20.0316 20.1057 20.0787 20.3835 20.1729C20.6613 20.2676 20.9168 20.3734 21.1502 20.4903C21.3835 20.6067 21.6168 20.7149 21.8502 20.8149C22.0835 20.9149 22.3557 20.9649 22.6668 20.9649V22.2649C22.2446 22.2649 21.8919 22.2149 21.6088 22.1149C21.3253 22.0149 21.0668 21.9065 20.8335 21.7896C20.6002 21.6731 20.3724 21.5678 20.1502 21.4736C19.9279 21.3789 19.6557 21.3316 19.3335 21.3316C19.0224 21.3316 18.7531 21.3789 18.5255 21.4736C18.2975 21.5678 18.0695 21.6731 17.8415 21.7896C17.6139 21.9065 17.3586 22.0149 17.0755 22.1149C16.7919 22.2149 16.4335 22.2649 16.0002 22.2649C15.5668 22.2649 15.2084 22.2149 14.9248 22.1149C14.6417 22.0149 14.3864 21.9065 14.1588 21.7896C13.9308 21.6731 13.7057 21.5678 13.4835 21.4736C13.2613 21.3789 12.9891 21.3316 12.6668 21.3316C12.3557 21.3316 12.0864 21.3789 11.8588 21.4736C11.6308 21.5678 11.4002 21.6731 11.1668 21.7896C10.9335 21.9065 10.6753 22.0149 10.3922 22.1149C10.1086 22.2149 9.75572 22.2649 9.3335 22.2649ZM9.3335 19.2983V17.9983C9.65572 17.9983 9.93061 17.9483 10.1582 17.8483C10.3862 17.7483 10.6168 17.64 10.8502 17.5236C11.0835 17.4067 11.3419 17.3009 11.6255 17.2063C11.9086 17.112 12.2557 17.0649 12.6668 17.0649C13.0891 17.0649 13.4362 17.112 13.7082 17.2063C13.9806 17.3009 14.2335 17.4067 14.4668 17.5236C14.7002 17.64 14.9335 17.7483 15.1668 17.8483C15.4002 17.9483 15.6779 17.9983 16.0002 17.9983C16.3224 17.9983 16.6002 17.9483 16.8335 17.8483C17.0668 17.7483 17.3002 17.64 17.5335 17.5236C17.7668 17.4067 18.0224 17.3009 18.3002 17.2063C18.5779 17.112 18.9224 17.0649 19.3335 17.0649C19.7557 17.0649 20.1057 17.112 20.3835 17.2063C20.6613 17.3009 20.9168 17.4067 21.1502 17.5236C21.3835 17.64 21.6168 17.7483 21.8502 17.8483C22.0835 17.9483 22.3557 17.9983 22.6668 17.9983V19.2983C22.2446 19.2983 21.8919 19.2483 21.6088 19.1483C21.3253 19.0483 21.0668 18.94 20.8335 18.8236C20.6002 18.7067 20.3724 18.6009 20.1502 18.5063C19.9279 18.412 19.6557 18.3649 19.3335 18.3649C19.0113 18.3649 18.7364 18.412 18.5088 18.5063C18.2808 18.6009 18.0531 18.7067 17.8255 18.8236C17.5975 18.94 17.3446 19.0483 17.0668 19.1483C16.7891 19.2483 16.4335 19.2983 16.0002 19.2983C15.5668 19.2983 15.2084 19.2483 14.9248 19.1483C14.6417 19.0483 14.3864 18.94 14.1588 18.8236C13.9308 18.7067 13.7057 18.6009 13.4835 18.5063C13.2613 18.412 12.9891 18.3649 12.6668 18.3649C12.3557 18.3649 12.0864 18.412 11.8588 18.5063C11.6308 18.6009 11.4002 18.7067 11.1668 18.8236C10.9335 18.94 10.6753 19.0483 10.3922 19.1483C10.1086 19.2483 9.75572 19.2983 9.3335 19.2983ZM9.3335 16.3316V15.0316C9.65572 15.0316 9.93061 14.9816 10.1582 14.8816C10.3862 14.7816 10.6168 14.6731 10.8502 14.5563C11.0835 14.4398 11.3419 14.3343 11.6255 14.2396C11.9086 14.1454 12.2557 14.0983 12.6668 14.0983C13.0891 14.0983 13.4362 14.1454 13.7082 14.2396C13.9806 14.3343 14.2335 14.4398 14.4668 14.5563C14.7002 14.6731 14.9335 14.7816 15.1668 14.8816C15.4002 14.9816 15.6779 15.0316 16.0002 15.0316C16.3224 15.0316 16.6002 14.9816 16.8335 14.8816C17.0668 14.7816 17.3002 14.6731 17.5335 14.5563C17.7668 14.4398 18.0224 14.3343 18.3002 14.2396C18.5779 14.1454 18.9224 14.0983 19.3335 14.0983C19.7557 14.0983 20.1057 14.1454 20.3835 14.2396C20.6613 14.3343 20.9168 14.4398 21.1502 14.5563C21.3835 14.6731 21.6168 14.7816 21.8502 14.8816C22.0835 14.9816 22.3557 15.0316 22.6668 15.0316V16.3316C22.2446 16.3316 21.8919 16.2816 21.6088 16.1816C21.3253 16.0816 21.0668 15.9734 20.8335 15.8569C20.6002 15.74 20.3724 15.6343 20.1502 15.5396C19.9279 15.4454 19.6557 15.3983 19.3335 15.3983C19.0224 15.3983 18.7531 15.4454 18.5255 15.5396C18.2975 15.6343 18.0695 15.74 17.8415 15.8569C17.6139 15.9734 17.3586 16.0816 17.0755 16.1816C16.7919 16.2816 16.4335 16.3316 16.0002 16.3316C15.5668 16.3316 15.2084 16.2816 14.9248 16.1816C14.6417 16.0816 14.3864 15.9734 14.1588 15.8569C13.9308 15.74 13.7057 15.6343 13.4835 15.5396C13.2613 15.4454 12.9891 15.3983 12.6668 15.3983C12.3557 15.3983 12.0864 15.4454 11.8588 15.5396C11.6308 15.6343 11.4002 15.74 11.1668 15.8569C10.9335 15.9734 10.6753 16.0816 10.3922 16.1816C10.1086 16.2816 9.75572 16.3316 9.3335 16.3316ZM9.3335 13.3649V12.0649C9.65572 12.0649 9.93061 12.0149 10.1582 11.9149C10.3862 11.8149 10.6168 11.7065 10.8502 11.5896C11.0835 11.4731 11.3419 11.3676 11.6255 11.2729C11.9086 11.1787 12.2557 11.1316 12.6668 11.1316C13.0891 11.1316 13.4362 11.1787 13.7082 11.2729C13.9806 11.3676 14.2335 11.4731 14.4668 11.5896C14.7002 11.7065 14.9335 11.8149 15.1668 11.9149C15.4002 12.0149 15.6779 12.0649 16.0002 12.0649C16.3224 12.0649 16.6002 12.0149 16.8335 11.9149C17.0668 11.8149 17.3002 11.7065 17.5335 11.5896C17.7668 11.4731 18.0224 11.3676 18.3002 11.2729C18.5779 11.1787 18.9224 11.1316 19.3335 11.1316C19.7557 11.1316 20.1057 11.1787 20.3835 11.2729C20.6613 11.3676 20.9168 11.4731 21.1502 11.5896C21.3835 11.7065 21.6168 11.8149 21.8502 11.9149C22.0835 12.0149 22.3557 12.0649 22.6668 12.0649V13.3649C22.2446 13.3649 21.8919 13.3149 21.6088 13.2149C21.3253 13.1149 21.0668 13.0065 20.8335 12.8896C20.6002 12.7731 20.3724 12.6676 20.1502 12.5729C19.9279 12.4787 19.6557 12.4316 19.3335 12.4316C19.0224 12.4316 18.7531 12.4787 18.5255 12.5729C18.2975 12.6676 18.0695 12.7731 17.8415 12.8896C17.6139 13.0065 17.3586 13.1149 17.0755 13.2149C16.7919 13.3149 16.4335 13.3649 16.0002 13.3649C15.5668 13.3649 15.2084 13.3149 14.9248 13.2149C14.6417 13.1149 14.3864 13.0065 14.1588 12.8896C13.9308 12.7731 13.7057 12.6676 13.4835 12.5729C13.2613 12.4787 12.9891 12.4316 12.6668 12.4316C12.3557 12.4316 12.0864 12.4787 11.8588 12.5729C11.6308 12.6676 11.4002 12.7731 11.1668 12.8896C10.9335 13.0065 10.6753 13.1149 10.3922 13.2149C10.1086 13.3149 9.75572 13.3649 9.3335 13.3649Z" fill="white"/>
</g>
</svg>
