<svg width="20" height="21" viewBox="0 0 20 21" fill="none" xmlns="http://www.w3.org/2000/svg">
<path d="M9.57031 15.3438L3.94531 10.3438C3.67188 10.1484 3.67188 9.71875 3.90625 9.48438C4.10156 9.21094 4.53125 9.21094 4.76562 9.40625L9.375 13.5078V1.125C9.375 0.8125 9.64844 0.5 10 0.5C10.3125 0.5 10.625 0.8125 10.625 1.125V13.5078L15.1953 9.44531C15.4297 9.21094 15.8594 9.21094 16.0547 9.48438C16.2891 9.71875 16.2891 10.1484 16.0156 10.3438L10.3906 15.3438C10.2734 15.4609 10.1172 15.5 10 15.5C9.84375 15.5 9.6875 15.4609 9.57031 15.3438ZM17.5 13C18.8672 13 20 14.1328 20 15.5V18C20 19.4062 18.8672 20.5 17.5 20.5H2.5C1.09375 20.5 0 19.4062 0 18V15.5C0 14.1328 1.09375 13 2.5 13H4.375C4.6875 13 5 13.3125 5 13.625C5 13.9766 4.6875 14.25 4.375 14.25H2.5C1.79688 14.25 1.25 14.8359 1.25 15.5V18C1.25 18.7031 1.79688 19.25 2.5 19.25H17.5C18.1641 19.25 18.75 18.7031 18.75 18V15.5C18.75 14.8359 18.1641 14.25 17.5 14.25H15.625C15.2734 14.25 15 13.9766 15 13.625C15 13.3125 15.2734 13 15.625 13H17.5ZM17.1875 16.75C17.1875 17.2969 16.7578 17.6875 16.25 17.6875C15.7031 17.6875 15.3125 17.2969 15.3125 16.75C15.3125 16.2422 15.7031 15.8125 16.25 15.8125C16.7578 15.8125 17.1875 16.2422 17.1875 16.75Z" fill="#131212"/>
</svg>
