<svg width="12" height="16" viewBox="0 0 12 16" fill="none" xmlns="http://www.w3.org/2000/svg">
<path d="M11.4062 3.9375L8.0625 0.59375C7.6875 0.21875 7.1875 0 6.65625 0H2C0.875 0 0 0.90625 0 2V14C0 15.125 0.875 16 2 16H10C11.0938 16 12 15.125 12 14V5.34375C12 4.8125 11.7812 4.3125 11.4062 3.9375ZM7 1.09375C7.125 1.125 7.25 1.1875 7.375 1.3125L10.6875 4.625C10.8125 4.75 10.875 4.875 10.9062 5H7.5C7.21875 5 7 4.78125 7 4.5V1.09375ZM11 14C11 14.5625 10.5312 15 10 15H2C1.4375 15 1 14.5625 1 14V2C1 1.46875 1.4375 1 2 1H6V4.5C6 5.34375 6.65625 6 7.5 6H11V14ZM6.3125 9.0625C6.625 8.0625 6.65625 7.28125 6.65625 7.125C6.65625 6.5 6.15625 6 5.53125 6C4.9375 6 4.4375 6.5 4.4375 7.125C4.4375 7.125 4.4375 8.03125 4.875 9.125C4.65625 9.71875 4.375 10.3438 4.0625 10.9375C3.34375 11.2812 2.75 11.6562 2.3125 12.0938C2.09375 12.3125 2 12.5938 2 12.9062C2 13.5312 2.46875 14 3.09375 14C3.4375 14 3.78125 13.8438 4 13.5625C4.1875 13.3125 4.5625 12.75 5 12C5.53125 11.7812 6.125 11.625 6.8125 11.4688C7.1875 11.7188 8.125 12.2812 8.78125 12.2812C9.46875 12.2812 10 11.75 10 11.0938C10 10.4375 9.4375 9.875 8.75 9.875C8.25 9.875 7.5 10 7.125 10.0625C6.8125 9.78125 6.53125 9.4375 6.3125 9.0625ZM3.28125 13.0312C3.15625 13.1875 2.875 13.125 2.875 12.875C2.875 12.8125 2.90625 12.7812 2.9375 12.75C3.21875 12.4375 3.59375 12.1875 3.96875 11.9688C3.65625 12.5 3.40625 12.8438 3.28125 13.0312ZM5.53125 6.90625C5.65625 6.90625 5.75 7 5.75 7.125C5.75 7.59375 5.625 8.21875 5.5625 8.46875C5.3125 7.75 5.3125 7.15625 5.3125 7.125C5.3125 7 5.40625 6.90625 5.53125 6.90625ZM5 11.0312C5.21875 10.625 5.4375 10.125 5.65625 9.625C5.84375 9.96875 6.125 10.3125 6.46875 10.625C6 10.75 5.5 10.875 5 11.0312ZM8.75 10.7812C8.9375 10.7812 9.09375 10.9062 9.09375 11.125C9.09375 11.2812 8.96875 11.4062 8.78125 11.4062C8.5 11.4062 7.84375 11.0938 7.53125 10.9062C7.5625 10.9062 8.375 10.7812 8.75 10.7812Z" fill="#131212"/>
</svg>
