<svg width="15" height="21" viewBox="0 0 15 21" fill="none" xmlns="http://www.w3.org/2000/svg">
<path d="M14.2578 5.42188C14.7266 5.89062 15 6.51562 15 7.17969V18C15 19.4062 13.8672 20.5 12.5 20.5H2.5C1.09375 20.5 0 19.4062 0 18V3C0 1.63281 1.09375 0.5 2.5 0.5H8.32031C8.98438 0.5 9.60938 0.773438 10.0781 1.24219L14.2578 5.42188ZM8.75 1.86719V6.125C8.75 6.47656 9.02344 6.75 9.375 6.75H13.6328C13.5938 6.59375 13.5156 6.4375 13.3594 6.28125L9.21875 2.14062C9.0625 1.98438 8.90625 1.90625 8.75 1.86719ZM13.75 18V8H9.375C8.32031 8 7.5 7.17969 7.5 6.125V1.75H2.5C1.79688 1.75 1.25 2.33594 1.25 3V18C1.25 18.7031 1.79688 19.25 2.5 19.25H12.5C13.1641 19.25 13.75 18.7031 13.75 18ZM3.75 11.125C3.75 10.8125 4.02344 10.5 4.375 10.5H10.625C10.9375 10.5 11.25 10.8125 11.25 11.125C11.25 11.4766 10.9375 11.75 10.625 11.75H4.375C4.02344 11.75 3.75 11.4766 3.75 11.125ZM10.625 13C10.9375 13 11.25 13.3125 11.25 13.625C11.25 13.9766 10.9375 14.25 10.625 14.25H4.375C4.02344 14.25 3.75 13.9766 3.75 13.625C3.75 13.3125 4.02344 13 4.375 13H10.625ZM10.625 15.5C10.9375 15.5 11.25 15.8125 11.25 16.125C11.25 16.4766 10.9375 16.75 10.625 16.75H4.375C4.02344 16.75 3.75 16.4766 3.75 16.125C3.75 15.8125 4.02344 15.5 4.375 15.5H10.625Z" fill="#131212"/>
</svg>
