<svg width="16" height="16" viewBox="0 0 16 16" fill="none" xmlns="http://www.w3.org/2000/svg">
<path d="M7.125 4.625C7 4.5625 6.875 4.5 6.75 4.5C6.3125 4.5 6 4.875 6 5.25V10.75C6 11.1562 6.3125 11.5 6.75 11.5C6.875 11.5 7 11.4688 7.125 11.4062L11.625 8.65625C11.8438 8.53125 12 8.28125 12 8C12 7.75 11.8438 7.5 11.625 7.375L7.125 4.625ZM7 10.3125V5.71875L10.75 8.03125L7 10.3125ZM8 0C3.5625 0 0 3.59375 0 8C0 12.4375 3.5625 16 8 16C12.4062 16 16 12.4375 16 8C16 3.59375 12.4062 0 8 0ZM8 15C4.125 15 1 11.875 1 8C1 4.15625 4.125 1 8 1C11.8438 1 15 4.15625 15 8C15 11.875 11.8438 15 8 15Z" fill="#131212"/>
</svg>
