<svg width="48" height="48" viewBox="0 0 48 48" fill="none" xmlns="http://www.w3.org/2000/svg">
<g clip-path="url(#clip0_148_416)">
<rect width="48" height="18" fill="#1C66A6"/>
<path d="M7.42373 14V4.396H9.48173L11.6657 10.626C11.7217 10.794 11.7777 10.9807 11.8337 11.186C11.8991 11.382 11.9551 11.5687 12.0017 11.746C12.0577 11.9233 12.0997 12.0773 12.1277 12.208H12.2257C12.2537 12.068 12.2911 11.9093 12.3377 11.732C12.3844 11.5453 12.4357 11.354 12.4917 11.158C12.5477 10.962 12.5991 10.7847 12.6457 10.626L14.8297 4.396H16.8737V14H15.5437V8.372C15.5437 8.08267 15.5484 7.77 15.5577 7.434C15.5671 7.08867 15.5764 6.776 15.5857 6.496C15.5951 6.20667 15.5997 6.00133 15.5997 5.88H15.4877C15.4597 6.00133 15.4131 6.174 15.3477 6.398C15.2824 6.61267 15.2124 6.84133 15.1377 7.084C15.0724 7.31733 15.0117 7.52733 14.9557 7.714L12.7017 14H11.5537L9.29973 7.714C9.24373 7.55533 9.18306 7.37333 9.11773 7.168C9.06173 6.95333 9.00106 6.734 8.93573 6.51C8.87973 6.286 8.82373 6.076 8.76773 5.88H8.66973C8.67906 6.08533 8.68373 6.342 8.68373 6.65C8.69306 6.94867 8.69773 7.252 8.69773 7.56C8.70706 7.85867 8.71173 8.12933 8.71173 8.372V14H7.42373ZM19.2772 14V4.396H21.3352L23.5192 10.626C23.5752 10.794 23.6312 10.9807 23.6872 11.186C23.7526 11.382 23.8086 11.5687 23.8552 11.746C23.9112 11.9233 23.9532 12.0773 23.9812 12.208H24.0792C24.1072 12.068 24.1446 11.9093 24.1912 11.732C24.2379 11.5453 24.2892 11.354 24.3452 11.158C24.4012 10.962 24.4526 10.7847 24.4992 10.626L26.6832 4.396H28.7272V14H27.3972V8.372C27.3972 8.08267 27.4019 7.77 27.4112 7.434C27.4206 7.08867 27.4299 6.776 27.4392 6.496C27.4486 6.20667 27.4532 6.00133 27.4532 5.88H27.3412C27.3132 6.00133 27.2666 6.174 27.2012 6.398C27.1359 6.61267 27.0659 6.84133 26.9912 7.084C26.9259 7.31733 26.8652 7.52733 26.8092 7.714L24.5552 14H23.4072L21.1532 7.714C21.0972 7.55533 21.0366 7.37333 20.9712 7.168C20.9152 6.95333 20.8546 6.734 20.7892 6.51C20.7332 6.286 20.6772 6.076 20.6212 5.88H20.5232C20.5326 6.08533 20.5372 6.342 20.5372 6.65C20.5466 6.94867 20.5512 7.252 20.5512 7.56C20.5606 7.85867 20.5652 8.12933 20.5652 8.372V14H19.2772ZM31.1308 14V4.396H33.1888L35.3728 10.626C35.4288 10.794 35.4848 10.9807 35.5408 11.186C35.6061 11.382 35.6621 11.5687 35.7088 11.746C35.7648 11.9233 35.8068 12.0773 35.8348 12.208H35.9328C35.9608 12.068 35.9981 11.9093 36.0448 11.732C36.0914 11.5453 36.1428 11.354 36.1988 11.158C36.2548 10.962 36.3061 10.7847 36.3528 10.626L38.5368 4.396H40.5808V14H39.2508V8.372C39.2508 8.08267 39.2554 7.77 39.2648 7.434C39.2741 7.08867 39.2834 6.776 39.2928 6.496C39.3021 6.20667 39.3068 6.00133 39.3068 5.88H39.1948C39.1668 6.00133 39.1201 6.174 39.0548 6.398C38.9894 6.61267 38.9194 6.84133 38.8448 7.084C38.7794 7.31733 38.7188 7.52733 38.6628 7.714L36.4088 14H35.2608L33.0068 7.714C32.9508 7.55533 32.8901 7.37333 32.8248 7.168C32.7688 6.95333 32.7081 6.734 32.6428 6.51C32.5868 6.286 32.5308 6.076 32.4748 5.88H32.3768C32.3861 6.08533 32.3908 6.342 32.3908 6.65C32.4001 6.94867 32.4048 7.252 32.4048 7.56C32.4141 7.85867 32.4188 8.12933 32.4188 8.372V14H31.1308Z" fill="white"/>
<path d="M17.7027 40.264C16.8813 40.264 16.148 40.1467 15.5027 39.912C14.8573 39.6627 14.3073 39.2447 13.8527 38.658C13.398 38.0567 13.0533 37.2573 12.8187 36.26C12.584 35.248 12.4667 33.9793 12.4667 32.454C12.4667 30.9287 12.584 29.6673 12.8187 28.67C13.0533 27.658 13.398 26.8587 13.8527 26.272C14.3073 25.6707 14.8573 25.2527 15.5027 25.018C16.148 24.7687 16.8813 24.644 17.7027 24.644C18.524 24.644 19.25 24.7687 19.8807 25.018C20.526 25.2527 21.076 25.6707 21.5307 26.272C21.9853 26.8587 22.33 27.658 22.5647 28.67C22.7993 29.6673 22.9167 30.9287 22.9167 32.454C22.9167 33.9793 22.7993 35.248 22.5647 36.26C22.33 37.2573 21.9853 38.0567 21.5307 38.658C21.076 39.2447 20.526 39.6627 19.8807 39.912C19.25 40.1467 18.524 40.264 17.7027 40.264ZM17.7027 38.636C18.5387 38.636 19.184 38.4233 19.6387 37.998C20.108 37.5727 20.4307 36.942 20.6067 36.106C20.7973 35.27 20.8927 34.2287 20.8927 32.982V31.97C20.8927 30.7087 20.7973 29.66 20.6067 28.824C20.4307 27.9733 20.108 27.3353 19.6387 26.91C19.184 26.4847 18.5387 26.272 17.7027 26.272C16.8667 26.272 16.214 26.4847 15.7447 26.91C15.2753 27.3353 14.9453 27.966 14.7547 28.802C14.5787 29.638 14.4907 30.6867 14.4907 31.948V32.938C14.4907 34.1847 14.5787 35.2333 14.7547 36.084C14.9453 36.9347 15.2753 37.5727 15.7447 37.998C16.214 38.4233 16.8667 38.636 17.7027 38.636ZM30.314 40.264C29.4927 40.264 28.7593 40.1467 28.114 39.912C27.4687 39.6627 26.9187 39.2447 26.464 38.658C26.0093 38.0567 25.6647 37.2573 25.43 36.26C25.1953 35.248 25.078 33.9793 25.078 32.454C25.078 30.9287 25.1953 29.6673 25.43 28.67C25.6647 27.658 26.0093 26.8587 26.464 26.272C26.9187 25.6707 27.4687 25.2527 28.114 25.018C28.7593 24.7687 29.4927 24.644 30.314 24.644C31.1353 24.644 31.8613 24.7687 32.492 25.018C33.1373 25.2527 33.6873 25.6707 34.142 26.272C34.5967 26.8587 34.9413 27.658 35.176 28.67C35.4107 29.6673 35.528 30.9287 35.528 32.454C35.528 33.9793 35.4107 35.248 35.176 36.26C34.9413 37.2573 34.5967 38.0567 34.142 38.658C33.6873 39.2447 33.1373 39.6627 32.492 39.912C31.8613 40.1467 31.1353 40.264 30.314 40.264ZM30.314 38.636C31.15 38.636 31.7953 38.4233 32.25 37.998C32.7193 37.5727 33.042 36.942 33.218 36.106C33.4087 35.27 33.504 34.2287 33.504 32.982V31.97C33.504 30.7087 33.4087 29.66 33.218 28.824C33.042 27.9733 32.7193 27.3353 32.25 26.91C31.7953 26.4847 31.15 26.272 30.314 26.272C29.478 26.272 28.8253 26.4847 28.356 26.91C27.8867 27.3353 27.5567 27.966 27.366 28.802C27.19 29.638 27.102 30.6867 27.102 31.948V32.938C27.102 34.1847 27.19 35.2333 27.366 36.084C27.5567 36.9347 27.8867 37.5727 28.356 37.998C28.8253 38.4233 29.478 38.636 30.314 38.636Z" fill="black"/>
</g>
<rect x="0.25" y="0.25" width="47.5" height="47.5" rx="3.75" stroke="black" stroke-width="0.5"/>
<defs>
<clipPath id="clip0_148_416">
<rect width="48" height="48" rx="4" fill="white"/>
</clipPath>
</defs>
</svg>
